<?xml version="1.0" standalone="no"?>
<!DOCTYPE svg PUBLIC "-//W3C//DTD SVG 20010904//EN"
 "http://www.w3.org/TR/2001/REC-SVG-20010904/DTD/svg10.dtd">
<svg version="1.0" xmlns="http://www.w3.org/2000/svg"
 width="512.000000pt" height="512.000000pt" viewBox="0 0 512.000000 512.000000"
 preserveAspectRatio="xMidYMid meet">

<g transform="translate(0.000000,512.000000) scale(0.100000,-0.100000)"
fill="#000000" stroke="none">
<path d="M1255 5109 c-578 -76 -1067 -511 -1209 -1075 -46 -183 -47 -215 -44
-1539 4 -1239 4 -1251 26 -1342 139 -595 575 -1020 1157 -1129 94 -18 171 -19
1380 -19 1187 0 1287 1 1373 18 592 114 1047 570 1158 1162 18 94 19 171 19
1380 0 1194 -1 1286 -18 1370 -119 593 -537 1020 -1132 1158 -88 21 -112 21
-1365 23 -723 1 -1305 -2 -1345 -7z m2656 -332 c459 -114 780 -445 871 -897
10 -51 13 -329 13 -1320 0 -1347 2 -1299 -52 -1465 -125 -387 -454 -675 -863
-757 -95 -19 -2545 -19 -2640 0 -461 92 -810 440 -901 897 -21 104 -21 2546 0
2650 91 457 460 823 901 895 41 6 82 13 90 15 8 2 578 2 1265 1 1123 -2 1257
-4 1316 -19z"/>
<path d="M3765 4311 c-92 -24 -173 -90 -215 -176 -34 -70 -35 -198 -1 -267 30
-63 88 -121 153 -155 46 -23 65 -27 138 -27 73 0 92 4 137 27 66 34 116 84
150 150 23 45 27 64 27 137 0 73 -4 92 -27 138 -34 65 -93 123 -154 152 -50
23 -158 34 -208 21z"/>
<path d="M2420 3834 c-201 -26 -408 -102 -565 -207 -83 -56 -108 -77 -203
-170 -172 -170 -294 -396 -348 -647 -26 -119 -26 -381 0 -500 110 -512 494
-896 1006 -1006 119 -26 381 -26 500 0 259 56 459 164 646 350 193 193 304
394 360 656 26 119 26 381 0 500 -109 507 -483 886 -986 1001 -83 19 -331 33
-410 23z m303 -329 c372 -65 666 -337 769 -714 31 -110 31 -352 0 -462 -98
-357 -362 -617 -718 -706 -95 -24 -333 -24 -428 0 -172 43 -323 126 -449 246
-325 311 -390 809 -155 1191 206 335 597 512 981 445z"/>
</g>
</svg>
